HIERARCHY
ROOT joint_0
{
	OFFSET 0.000000 0.000000 0.000000
	CHANNELS 6 Xposition Yposition Zposition Zrotation Yrotation Xrotation 
	JOINT joint_1
	{
		OFFSET 14.113007 -2.961990 123.953979
		CHANNELS 3 Zrotation Yrotation Xrotation
		JOINT joint_2
		{
			OFFSET 0.764000 -2.434006 113.871948
			CHANNELS 3 Zrotation Yrotation Xrotation
			JOINT joint_3
			{
				OFFSET 0.186996 -2.169998 113.753052
				CHANNELS 3 Zrotation Yrotation Xrotation
				JOINT joint_4
				{
					OFFSET 16.096001 -2.720001 160.853027
					CHANNELS 3 Zrotation Yrotation Xrotation
					JOINT joint_5
					{
						OFFSET 34.392006 -0.188995 92.567017
						CHANNELS 3 Zrotation Yrotation Xrotation
						End Site
						{
							OFFSET 0.000000 0.000000 0.000000
						}
					}
				}
				JOINT joint_6
				{
					OFFSET 9.183998 -36.684006 89.597046
					CHANNELS 3 Zrotation Yrotation Xrotation
					JOINT joint_7
					{
						OFFSET 0.486000 -164.365997 -28.984009
						CHANNELS 3 Zrotation Yrotation Xrotation
						JOINT joint_8
						{
							OFFSET 38.899002 -34.967010 -291.651978
							CHANNELS 3 Zrotation Yrotation Xrotation
							JOINT joint_9
							{
								OFFSET 41.714005 -45.890991 -258.857056
								CHANNELS 3 Zrotation Yrotation Xrotation
								End Site
								{
									OFFSET 0.000000 0.000000 0.000000
								}
							}
						}
					}
				}
				JOINT joint_10
				{
					OFFSET 8.867004 33.650002 90.817993
					CHANNELS 3 Zrotation Yrotation Xrotation
					JOINT joint_11
					{
						OFFSET 0.018997 164.299999 -29.368042
						CHANNELS 3 Zrotation Yrotation Xrotation
						JOINT joint_12
						{
							OFFSET 29.440994 30.887997 -293.216919
							CHANNELS 3 Zrotation Yrotation Xrotation
							JOINT joint_13
							{
								OFFSET 46.174011 54.490005 -256.422058
								CHANNELS 3 Zrotation Yrotation Xrotation
								End Site
								{
									OFFSET 0.000000 0.000000 0.000000
								}
							}
						}
					}
				}
			}
		}
	}
	JOINT joint_14
	{
		OFFSET -2.264000 -89.466995 -116.150024
		CHANNELS 3 Zrotation Yrotation Xrotation
		JOINT joint_15
		{
			OFFSET -16.400993 -17.452988 -493.781982
			CHANNELS 3 Zrotation Yrotation Xrotation
			JOINT joint_16
			{
				OFFSET -50.497004 -13.404022 -424.754013
				CHANNELS 3 Zrotation Yrotation Xrotation
				JOINT joint_17
				{
					OFFSET 198.546007 -19.341003 -89.309000
					CHANNELS 3 Zrotation Yrotation Xrotation
					End Site
					{
						OFFSET 0.000000 0.000000 0.000000
					}
				}
			}
		}
	}
	JOINT joint_18
	{
		OFFSET -0.867996 96.016006 -110.817993
		CHANNELS 3 Zrotation Yrotation Xrotation
		JOINT joint_19
		{
			OFFSET -10.130997 24.658998 -493.645020
			CHANNELS 3 Zrotation Yrotation Xrotation
			JOINT joint_20
			{
				OFFSET -48.871004 19.434999 -424.714005
				CHANNELS 3 Zrotation Yrotation Xrotation
				JOINT joint_21
				{
					OFFSET 195.579996 24.926001 -94.327003
					CHANNELS 3 Zrotation Yrotation Xrotation
					End Site
					{
						OFFSET 0.000000 0.000000 0.000000
					}
				}
			}
		}
	}
}
MOTION
Frames: 6
Frame Time: 0.016667
-2608.022217 943.773010 1099.245972 2.288105 -4.467270 -1.911744 -0.924194 -1.259389 5.365672 -1.411646 0.161819 -1.118297 -1.453362 -0.230776 0.808092 -0.243124 -4.666562 0.641491 0.000000 0.000000 0.000000 0.214633 3.923119 -0.467648 -0.177562 3.986943 -0.099646 1.079652 -5.674920 0.378725 0.000000 0.000000 0.000000 0.897573 1.192175 -1.102634 0.173560 1.059020 3.053445 -0.311699 -6.126695 5.627558 0.000000 0.000000 0.000000 6.452044 -12.994242 -6.051965 2.492626 30.947892 6.688616 6.467325 -10.670653 1.568624 0.000000 0.000000 0.000000 -8.142508 -5.842918 12.274577 -5.443585 60.763227 -12.644507 -28.049629 9.018738 -11.398870 0.000000 0.000000 0.000000 
-2591.567871 944.378235 1101.614990 2.478304 -4.538916 -2.070540 -0.737220 -0.940954 5.272475 -1.246671 0.129789 -1.092556 -1.292329 -0.174811 0.803167 -0.290552 -4.706021 0.752653 0.000000 0.000000 0.000000 0.351204 3.825083 -0.541565 -0.203090 3.918829 -0.179767 1.027447 -5.476631 0.333101 0.000000 0.000000 0.000000 1.030370 1.177182 -1.113339 -0.047055 0.981900 2.393833 -0.600096 -7.163352 5.326133 0.000000 0.000000 0.000000 6.487145 -11.886561 -5.748779 2.486781 30.862899 6.643743 6.418325 -10.722441 1.541445 0.000000 0.000000 0.000000 -7.618989 -8.558755 13.213323 -5.288357 63.658205 -11.674889 -26.777905 7.756260 -10.831145 0.000000 0.000000 0.000000 
-2574.872803 945.493652 1105.347046 2.804661 -4.498500 -2.095706 -0.580546 -0.777050 4.948298 -1.143635 0.123878 -1.029494 -1.199296 -0.152885 0.770581 -0.330495 -4.734672 0.845665 0.000000 0.000000 0.000000 0.399701 3.731159 -0.601677 -0.231989 3.839510 -0.284430 0.963054 -5.183616 0.299044 0.000000 0.000000 0.000000 1.091523 1.309233 -0.968627 -0.277066 1.062735 1.841395 -0.977155 -8.180523 4.473197 0.000000 0.000000 0.000000 6.417379 -10.563544 -5.504159 2.525255 30.196730 6.359800 6.302547 -10.671981 1.503480 0.000000 0.000000 0.000000 -7.054893 -11.436188 13.938718 -5.232812 65.666458 -10.581445 -24.453620 6.004027 -9.804232 0.000000 0.000000 0.000000 
-2557.953857 947.253235 1109.577026 3.051517 -4.357033 -2.116308 -0.425838 -0.696708 4.660974 -1.041938 0.123699 -0.979783 -1.105762 -0.143187 0.733018 -0.350893 -4.740142 0.890588 0.000000 0.000000 0.000000 0.393359 3.651924 -0.724338 -0.249169 3.763255 -0.358483 0.915234 -4.957277 0.278984 0.000000 0.000000 0.000000 1.148060 1.492248 -0.830650 -0.487877 1.198577 1.480275 -1.362082 -9.258530 3.647527 0.000000 0.000000 0.000000 6.303441 -9.157078 -5.233226 2.635664 29.102197 5.963471 6.167335 -10.473468 1.476552 0.000000 0.000000 0.000000 -6.507201 -14.258586 14.565291 -5.270229 66.576300 -9.569912 -22.128854 4.370138 -8.802640 0.000000 0.000000 0.000000 
-2540.882568 949.719177 1114.265991 3.169177 -4.099106 -2.149762 -0.274833 -0.698522 4.460610 -0.934958 0.121471 -0.941016 -1.002288 -0.137745 0.701008 -0.336159 -4.707594 0.847443 0.000000 0.000000 0.000000 0.323131 3.581203 -0.945485 -0.247930 3.681338 -0.375086 0.891865 -4.845209 0.274175 0.000000 0.000000 0.000000 1.232105 1.724218 -0.748561 -0.684729 1.382086 1.363072 -1.764079 -10.606697 3.061884 0.000000 0.000000 0.000000 6.140276 -7.644333 -4.916593 2.822392 27.459327 5.436928 5.990799 -10.070880 1.458198 0.000000 0.000000 0.000000 -5.972367 -16.949804 15.152650 -5.348374 66.147719 -8.687557 -19.963489 3.349518 -7.978131 0.000000 0.000000 0.000000 
-2523.587158 952.830383 1119.453003 3.237017 -3.747279 -2.143971 -0.138960 -0.773724 4.222818 -0.837074 0.119346 -0.883397 -0.905570 -0.145311 0.666913 -0.300945 -4.648380 0.753208 0.000000 0.000000 0.000000 0.196172 3.524449 -1.225238 -0.236714 3.601794 -0.359088 0.882325 -4.801020 0.274477 0.000000 0.000000 0.000000 1.313738 2.005468 -0.661077 -0.865195 1.619916 1.416431 -2.173344 -12.037580 2.527108 0.000000 0.000000 0.000000 5.928767 -6.010688 -4.633219 3.074413 25.340914 4.783719 5.802124 -9.453890 1.459450 0.000000 0.000000 0.000000 -5.431727 -19.486729 15.626200 -5.382869 64.510815 -7.887186 -17.722144 2.801063 -7.204538 0.000000 0.000000 0.000000 
